<svg width="209" height="48" viewBox="0 0 209 48" fill="none" xmlns="http://www.w3.org/2000/svg">
<path d="M104.63 30.1842C104.171 30.1842 103.806 29.821 103.806 29.3956C103.806 28.9494 104.161 28.5863 104.63 28.5863C105.048 28.5863 105.413 28.9494 105.413 29.3956C105.403 29.821 105.048 30.1842 104.63 30.1842Z" fill="#5A5A5C"/>
<path d="M66.0752 31.419C65.0521 31.419 64.1334 31.668 63.4443 32.0415L63.8619 32.9546C64.5092 32.5811 65.1774 32.3632 66.0022 32.3632C67.1506 32.3632 67.7143 32.9339 67.7143 34.0856V35.0091C67.255 34.7601 66.545 34.5629 65.7516 34.5629C64.196 34.5629 62.7449 35.31 62.7449 37.0636C62.7449 38.952 64.029 39.5642 65.2609 39.5642C66.3884 39.5642 67.161 39.0454 67.7143 38.4436V39.3982H68.8314V33.9507C68.8314 32.1349 67.7665 31.419 66.0752 31.419ZM67.7039 37.4786C67.2237 38.1323 66.4615 38.6511 65.4384 38.6511C64.4779 38.6511 63.8306 38.1427 63.8306 36.9806C63.8306 35.9948 64.5197 35.4449 65.6681 35.4449C66.6286 35.4449 67.1819 35.6109 67.6935 35.8911V37.4786H67.7039Z" fill="#5A5A5C"/>
<path d="M74.5316 34.8535C73.2057 34.262 72.7986 33.9922 72.7986 33.3385C72.7986 32.7782 73.2788 32.3735 74.1036 32.3735C74.9388 32.3735 75.4503 32.6018 76.0663 33.0687L76.6927 32.249C76.0976 31.7614 75.252 31.419 74.1767 31.419C72.7568 31.419 71.7232 32.2179 71.7232 33.4112C71.7232 34.6667 72.381 35.1336 73.9574 35.808C75.346 36.3995 75.8158 36.7627 75.8158 37.3956C75.8158 38.1531 75.3042 38.5992 74.2289 38.5992C73.4459 38.5992 72.715 38.2879 72.0886 37.738L71.4309 38.5577C72.1826 39.1596 73.1222 39.5538 74.1976 39.5538C75.5548 39.5538 76.8911 38.8794 76.8911 37.3541C76.8911 35.9533 76.0245 35.5279 74.5316 34.8535Z" fill="#5A5A5C"/>
<path d="M82.1322 34.8535C80.7959 34.262 80.3991 33.9922 80.3991 33.3385C80.3991 32.7782 80.8794 32.3735 81.7042 32.3735C82.5394 32.3735 83.0509 32.6018 83.6669 33.0687L84.2933 32.249C83.6878 31.7614 82.8526 31.419 81.7772 31.419C80.3574 31.419 79.3238 32.2179 79.3238 33.4112C79.3238 34.6667 79.9816 35.1336 81.558 35.808C82.9465 36.3995 83.4163 36.7627 83.4163 37.3956C83.4163 38.1531 82.9048 38.5992 81.8295 38.5992C81.0569 38.5992 80.3156 38.2879 79.6892 37.738L79.0315 38.5577C79.7832 39.1596 80.7228 39.5538 81.7981 39.5538C83.1554 39.5538 84.4917 38.8794 84.4917 37.3541C84.4812 35.9533 83.6147 35.5279 82.1322 34.8535Z" fill="#5A5A5C"/>
<path d="M90.2335 31.419C88.3126 31.419 86.7883 32.8509 86.7883 35.4968C86.7883 38.1427 88.2604 39.5538 90.1709 39.5538C92.0919 39.5538 93.6161 38.0804 93.6161 35.4345C93.6161 32.7886 92.1441 31.419 90.2335 31.419ZM90.2022 38.5888C88.845 38.5888 87.9263 37.5201 87.9263 35.4656C87.9263 33.4111 88.8346 32.3839 90.2022 32.3839C91.5699 32.3839 92.4991 33.4111 92.4991 35.4656C92.4886 37.5201 91.5594 38.5888 90.2022 38.5888Z" fill="#5A5A5C"/>
<path d="M99.0242 32.3839C99.8176 32.3839 100.34 32.6641 100.914 33.1725L101.592 32.3425C100.976 31.8029 100.173 31.419 99.1077 31.419C97.4581 31.419 95.7251 32.6434 95.7251 35.5279C95.7251 38.2465 97.312 39.5642 99.0346 39.5642C100.141 39.5642 100.903 39.1492 101.572 38.4747L100.893 37.7588C100.35 38.2776 99.8489 38.5888 99.0764 38.5888C97.6878 38.5888 96.8631 37.3541 96.8631 35.4345C96.8526 33.4838 97.7922 32.3839 99.0242 32.3839Z" fill="#5A5A5C"/>
<path d="M105.184 31.5849H104.067V39.3982H105.184V31.5849Z" fill="#5A5A5C"/>
<path d="M111.072 31.419C110.049 31.419 109.13 31.668 108.441 32.0415L108.859 32.9546C109.506 32.5811 110.174 32.3632 110.999 32.3632C112.147 32.3632 112.711 32.9339 112.711 34.0856V35.0091C112.241 34.7601 111.542 34.5629 110.748 34.5629C109.193 34.5629 107.742 35.31 107.742 37.0636C107.742 38.952 109.026 39.5642 110.258 39.5642C111.385 39.5642 112.158 39.0454 112.711 38.4436V39.3982H113.828V33.9507C113.828 32.1349 112.774 31.419 111.072 31.419ZM112.711 37.4786C112.231 38.1323 111.469 38.6511 110.446 38.6511C109.485 38.6511 108.848 38.1427 108.848 36.9806C108.848 35.9948 109.537 35.4449 110.686 35.4449C111.646 35.4449 112.2 35.6109 112.711 35.8911V37.4786Z" fill="#5A5A5C"/>
<path d="M118.464 28.5448L117.336 29.1674V31.5746H116.365V32.5084H117.336V37.7795C117.336 39.0766 117.858 39.5538 118.829 39.5538C119.424 39.5538 119.852 39.4605 120.28 39.2841L120.353 38.3191C119.998 38.4643 119.696 38.5474 119.247 38.5474C118.641 38.5474 118.453 38.3087 118.453 37.6135V32.5188H120.395V31.585H118.453V28.5448H118.464Z" fill="#5A5A5C"/>
<path d="M125.876 31.419C124.007 31.419 122.629 32.965 122.629 35.4553C122.629 38.5266 124.383 39.5642 125.813 39.5642C126.993 39.5642 127.682 39.2529 128.632 38.6511L128.11 37.8522C127.39 38.3295 126.857 38.5992 125.939 38.5992C124.655 38.5992 123.861 37.5409 123.757 35.8807H128.998C129.029 35.7043 129.039 35.5383 129.039 35.2685C129.029 33.0273 127.922 31.419 125.876 31.419ZM123.746 34.9572C123.882 33.214 124.686 32.3839 125.855 32.3839C127.233 32.3839 127.891 33.4423 127.985 34.9572H123.746Z" fill="#5A5A5C"/>
<path d="M134.239 34.8535C132.902 34.262 132.506 33.9922 132.506 33.3385C132.506 32.7782 132.986 32.3735 133.811 32.3735C134.646 32.3735 135.157 32.6018 135.773 33.0687L136.4 32.249C135.805 31.7614 134.959 31.419 133.884 31.419C132.464 31.419 131.43 32.2179 131.43 33.4112C131.43 34.6667 132.088 35.1336 133.664 35.808C135.053 36.3995 135.523 36.7627 135.523 37.3956C135.523 38.1531 135.011 38.5992 133.936 38.5992C133.153 38.5992 132.422 38.2879 131.796 37.738L131.138 38.5577C131.89 39.1596 132.829 39.5538 133.905 39.5538C135.262 39.5538 136.598 38.8794 136.598 37.3541C136.598 35.9533 135.721 35.5279 134.239 34.8535Z" fill="#5A5A5C"/>
<path d="M68.5391 10.7082C67.2341 10.7082 66.19 11.3204 65.2922 12.1505V10.9676H62.8701V27.891L65.2922 26.6356V22.1842C65.9812 22.9416 67.1714 23.5954 68.4242 23.5954C71.0134 23.5954 73.3311 21.5928 73.3311 17.3489C73.3311 12.6382 71.2117 10.7082 68.5391 10.7082ZM68.1841 21.3541C66.9522 21.3541 65.8142 20.4617 65.2713 19.725V14.5163C65.9082 13.7173 66.9313 12.9391 68.0902 12.9391C69.8963 12.9391 70.8881 14.3087 70.8881 17.4112C70.8881 20.0363 69.938 21.3541 68.1841 21.3541Z" fill="black"/>
<path d="M83.1448 10.7082C81.8607 10.7082 80.6288 11.2477 80.0128 12.1505V6.16342L77.5698 7.43973V23.3463H80.0128V16.1142C80.0128 14.1116 80.942 12.9598 82.5706 12.9598C84.1889 12.9598 85.1284 13.8521 85.1284 16.3528V23.3567H87.5715V16.2594C87.5819 12.5863 86.0367 10.7082 83.1448 10.7082Z" fill="black"/>
<path d="M97.1345 10.7082C95.3805 10.7082 94.0546 11.0817 92.8645 11.8184L93.8145 13.655C94.7854 13.1155 95.7773 12.8768 97.0614 12.8768C98.5752 12.8768 99.4104 13.6342 99.4104 14.9728V15.8962C98.7214 15.5953 97.8026 15.4293 96.6334 15.4293C93.8145 15.4293 91.6743 16.6745 91.6743 19.4345C91.6743 22.4747 93.9711 23.6057 95.9965 23.6057C97.3433 23.6057 98.5543 22.9728 99.4104 22.1219V23.3463H101.812V14.8586C101.801 12.0467 99.9115 10.7082 97.1345 10.7082ZM99.4104 19.8288C98.8467 20.607 97.7087 21.406 96.4037 21.406C94.7959 21.406 94.0129 20.5863 94.0129 19.3619C94.0129 18.2309 95.0047 17.5253 96.5707 17.5253C97.8966 17.5253 98.7527 17.7432 99.4208 18.0649V19.8288H99.4104Z" fill="black"/>
<path d="M108.942 12.1401V10.9572H106.499V23.3256H108.942V16.2594C108.942 14.1635 109.84 13.074 111.385 13.074C112.189 13.074 112.732 13.24 113.254 13.5201L113.891 11.2166C113.39 10.8846 112.774 10.6978 111.782 10.6978C110.55 10.7082 109.506 11.3204 108.942 12.1401Z" fill="black"/>
<path d="M130.23 10.7082C128.288 10.7082 127.317 11.4138 126.409 12.524C125.74 11.3411 124.675 10.7082 122.995 10.7082C121.71 10.7082 120.646 11.2477 120.03 12.1505V10.9676H117.587V23.336H120.03V16.1038C120.03 14.1012 120.792 12.9495 122.42 12.9495C124.039 12.9495 124.811 13.8418 124.811 16.3424V23.3463H127.254V16.1142C127.254 14.1116 128.016 12.9598 129.645 12.9598C131.253 12.9598 132.036 13.8521 132.036 16.3528V23.3567H134.479V16.2594C134.5 12.5863 133.122 10.7082 130.23 10.7082Z" fill="black"/>
<path d="M144.052 10.7082C142.298 10.7082 140.972 11.0817 139.782 11.8184L140.732 13.655C141.703 13.1155 142.705 12.8768 143.979 12.8768C145.493 12.8768 146.328 13.6342 146.328 14.9728V15.8962C145.639 15.5953 144.72 15.4293 143.551 15.4293C140.732 15.4293 138.592 16.6745 138.592 19.4345C138.592 22.4747 140.889 23.6057 142.904 23.6057C144.261 23.6057 145.462 22.9728 146.318 22.1219V23.3463H148.708V14.8586C148.729 12.0467 146.829 10.7082 144.052 10.7082ZM146.328 19.8288C145.754 20.607 144.616 21.406 143.321 21.406C141.703 21.406 140.931 20.5863 140.931 19.3619C140.931 18.2309 141.922 17.5253 143.488 17.5253C144.814 17.5253 145.67 17.7432 146.339 18.0649V19.8288H146.328Z" fill="black"/>
<path d="M156.58 6.15304L154.179 7.42935V10.9676H152.404V13.1881H154.179V20.3269C154.179 22.537 155.244 23.6057 156.977 23.6057C157.948 23.6057 158.783 23.3671 159.368 23.035L159.65 20.8872C159.201 21.1466 158.491 21.3853 157.844 21.3853C156.946 21.3853 156.559 21.0532 156.559 19.9014V13.1881H159.66V10.9676H156.58V6.15304Z" fill="black"/>
<path d="M168.075 10.7082C164.849 10.7082 162.615 12.9702 162.615 17.1622C162.615 21.2607 165.079 23.5954 168.002 23.5954C169.902 23.5954 171.196 23.0039 172.293 21.9663L170.842 20.4099C170.006 21.0221 169.182 21.3956 168.138 21.3956C166.624 21.3956 165.267 20.3788 165.006 18.0026H173.232C173.253 17.7432 173.305 17.3385 173.305 16.8924C173.316 13.5616 171.604 10.7082 168.075 10.7082ZM165.068 16.0104C165.287 14.0285 166.279 12.8975 167.918 12.8975C169.933 12.8975 170.737 14.3087 170.862 16.0104H165.068Z" fill="black"/>
<path d="M181.856 13.0117C182.973 13.0117 183.871 13.4787 184.894 14.5163L186.345 12.7938C185.186 11.4241 183.766 10.6978 181.939 10.6978C178.901 10.6978 176.49 13.0739 176.49 17.1829C176.49 21.0428 178.839 23.5954 181.877 23.5954C184.132 23.5954 185.364 22.5162 186.334 21.2815L184.768 19.7458C183.798 20.7627 183.108 21.2815 181.95 21.2815C180.008 21.2815 178.964 19.5383 178.964 17.1103C178.932 14.5993 180.07 13.0117 181.856 13.0117Z" fill="black"/>
<path d="M195.72 10.7082C194.436 10.7082 193.204 11.2477 192.588 12.1505V6.16342L190.145 7.43973V23.3463H192.588V16.1142C192.588 14.1116 193.517 12.9598 195.146 12.9598C196.754 12.9598 197.704 13.8521 197.704 16.3528V23.3567H200.147V16.2594C200.157 12.5863 198.612 10.7082 195.72 10.7082Z" fill="black"/>
<path d="M203.603 7.59534V9.50458C203.603 9.76398 203.676 9.85733 203.895 9.85733C204.062 9.85733 204.177 9.82625 204.312 9.77436L204.281 10.1375C204.114 10.1998 203.957 10.2412 203.738 10.2412C203.373 10.2412 203.174 10.0649 203.174 9.57722V7.59534H202.809V7.24259H203.174V6.33987L203.592 6.10117V7.24259H204.323V7.59534H203.603V7.59534Z" fill="#5A5A5C"/>
<path d="M208.572 10.179V8.46696C208.572 7.79251 208.363 7.55385 207.935 7.55385C207.538 7.55385 207.277 7.82364 207.277 8.46696V10.179H206.86V8.46696C206.86 7.79251 206.63 7.55385 206.223 7.55385C205.816 7.55385 205.565 7.82364 205.565 8.46696V10.179H205.148V7.25297H205.565V7.60572C205.722 7.35669 205.962 7.19065 206.317 7.19065C206.735 7.19065 206.985 7.41897 207.121 7.68875C207.298 7.40859 207.538 7.19065 208.019 7.19065C208.614 7.19065 209 7.54347 209 8.39432V10.179H208.572Z" fill="#5A5A5C"/>
<path d="M37.626 12.3476C37.1353 12.2231 36.6446 12.1401 36.133 12.0778C36.0704 11.5694 35.9869 11.0817 35.8616 10.5941C34.5671 5.35411 29.8064 1.4423 24.1374 1.4423C18.4684 1.4423 13.7077 5.34373 12.4132 10.5941C12.2983 11.0817 12.2044 11.5694 12.1418 12.0778C11.6302 12.1401 11.1395 12.2231 10.6488 12.3476C5.37656 13.6343 1.44067 18.3658 1.44067 24C1.44067 29.6342 5.36612 34.3658 10.6488 35.6524C11.1395 35.7666 11.6302 35.86 12.1418 35.9118C12.2044 36.4203 12.2879 36.9079 12.4132 37.3956C13.7077 42.6356 18.4684 46.5474 24.1374 46.5474C29.8064 46.5474 34.5671 42.6459 35.8616 37.3956C35.9765 36.9079 36.0704 36.4203 36.133 35.9118C36.6446 35.86 37.1353 35.7666 37.626 35.6524C42.8982 34.3658 46.8341 29.6342 46.8341 24C46.8341 18.3658 42.9087 13.6343 37.626 12.3476Z" fill="white"/>
<path d="M37.4172 10.812C36.1749 4.65893 30.7043 0 24.1479 0C17.5915 0 12.1105 4.65893 10.8785 10.812C4.68758 12.0364 0 17.4838 0 24C0 30.5162 4.68758 35.9637 10.8785 37.1881C12.1209 43.3411 17.602 48 24.1479 48C30.7043 48 36.1853 43.3515 37.4172 37.1881C43.6082 35.9533 48.2958 30.5162 48.2958 24C48.2958 17.4838 43.6082 12.0467 37.4172 10.812ZM37.626 35.6628C37.1353 35.7769 36.6447 35.8703 36.1331 35.9326C36.0705 36.441 35.987 36.9287 35.8617 37.4163C34.5671 42.6563 29.8064 46.5681 24.1375 46.5681C18.4685 46.5681 13.7078 42.6667 12.4132 37.4163C12.2984 36.9287 12.2045 36.441 12.1418 35.9326C11.6303 35.8807 11.1395 35.7873 10.6489 35.6628C5.37662 34.3761 1.44074 29.6446 1.44074 24.0104C1.44074 18.3761 5.36618 13.6343 10.6489 12.358C11.1395 12.2335 11.6303 12.1505 12.1418 12.0882C12.2045 11.5902 12.288 11.0921 12.4132 10.6044C13.7078 5.36449 18.4685 1.45268 24.1375 1.45268C29.8064 1.45268 34.5671 5.35412 35.8617 10.6044C35.9765 11.0921 36.0705 11.5798 36.1331 12.0882C36.6447 12.1505 37.1353 12.2335 37.626 12.358C42.8983 13.6447 46.8342 18.3761 46.8342 24.0104C46.8342 29.6343 42.9087 34.3761 37.626 35.6628Z" fill="#215B6C"/>
<path d="M24.1375 24.1557C24.1479 24.5915 24.1792 25.0273 24.2419 25.4527C24.3149 25.9507 24.4089 26.4281 24.5446 26.895C24.649 27.2581 24.7743 27.6213 24.9205 27.9741C25.1606 28.5655 25.4633 29.1362 25.7974 29.6654C27.6766 32.6018 30.9861 34.5526 34.755 34.5526C34.755 30.8068 32.7923 27.5279 29.8377 25.6498C29.2948 25.3074 28.7311 25.0169 28.136 24.7782C27.781 24.6329 27.4261 24.5084 27.0502 24.4047C26.5804 24.2698 26.0897 24.1661 25.5991 24.1038C25.171 24.0415 24.7325 24.0104 24.294 24H24.1375V24.1557V24.1557Z" fill="#33817D"/>
<path d="M25.0249 31.0973C24.7013 30.6615 24.4089 30.2049 24.1479 29.7276C23.8869 30.2049 23.5946 30.6615 23.2709 31.0973C21.089 34.0441 17.5916 35.9741 13.6348 36.0052C13.7078 36.4929 13.8018 36.9806 13.9375 37.4475C15.2008 41.8677 19.2933 45.1051 24.1479 45.1051C29.0026 45.1051 33.0846 41.8677 34.3583 37.4475C34.4941 36.9806 34.5984 36.4929 34.6611 36.0052C30.7043 35.9637 27.2069 34.0441 25.0249 31.0973Z" fill="#33817D"/>
<path d="M17.0068 24.8716C17.4452 24.55 17.9046 24.2594 18.3953 24C17.9151 23.7406 17.4557 23.4501 17.0172 23.1284C14.0522 20.9598 12.1104 17.4838 12.0791 13.5616C11.5779 13.6342 11.0977 13.7277 10.6279 13.8626C6.18041 15.1181 2.9231 19.1855 2.9231 24.0104C2.9231 28.8353 6.18041 32.8924 10.6279 34.1583C11.0977 34.2932 11.5884 34.3969 12.0791 34.4592C12.0999 30.5266 14.0418 27.0402 17.0068 24.8716Z" fill="#DD6735"/>
<path d="M22.6862 24.1038C22.1955 24.1661 21.7049 24.2698 21.2351 24.4047C20.8697 24.5084 20.5042 24.6329 20.1493 24.7782C19.5542 25.0169 18.98 25.3178 18.4475 25.6498C15.493 27.5175 13.5303 30.8068 13.5303 34.5526C17.2991 34.5526 20.5982 32.6018 22.4879 29.6654C22.8324 29.1362 23.1247 28.5655 23.3648 27.9741C23.511 27.6213 23.6363 27.2685 23.7407 26.895C23.8764 26.4281 23.9808 25.9404 24.0434 25.4527C24.1061 25.0273 24.1374 24.5915 24.1479 24.1557V24H24.0121C23.5528 24.0104 23.1143 24.0415 22.6862 24.1038Z" fill="#DD6735"/>
<path d="M37.6678 13.8522C37.198 13.7173 36.7073 13.6135 36.2167 13.5512C36.1853 17.4734 34.2435 20.9598 31.2785 23.1284C30.84 23.4501 30.3806 23.7406 29.9004 24C30.3806 24.2594 30.84 24.5603 31.2785 24.8716C34.2435 27.0402 36.1853 30.5162 36.2167 34.4488C36.7178 34.3761 37.198 34.2828 37.6678 34.1479C42.1153 32.8924 45.3726 28.8249 45.3726 24C45.3726 19.1751 42.1153 15.1181 37.6678 13.8522Z" fill="#4BB4A2"/>
<path d="M24.294 24C24.7325 24 25.171 23.9585 25.5991 23.8963C26.1002 23.8236 26.5804 23.7303 27.0502 23.5954C27.4156 23.4916 27.7706 23.3671 28.1256 23.2322C28.7207 22.9935 29.2948 22.6926 29.8377 22.3502C32.7923 20.4825 34.755 17.1933 34.755 13.4475C30.9861 13.4475 27.6871 15.3982 25.7974 18.3347C25.4529 18.8639 25.1606 19.4346 24.9205 20.026C24.7743 20.3788 24.649 20.7315 24.5446 21.1051C24.4089 21.572 24.3045 22.0597 24.2419 22.5474C24.1792 22.9728 24.1479 23.419 24.1375 23.8548V23.9896H24.294V24Z" fill="#4BB4A2"/>
<path d="M23.2605 16.9131C23.5841 17.3489 23.8764 17.8054 24.1374 18.2827C24.3984 17.8054 24.6908 17.3489 25.0144 16.9131C27.1964 13.9663 30.6938 12.0363 34.6506 12.0052C34.5775 11.5071 34.4836 11.0298 34.3478 10.5629C33.0846 6.14266 28.9921 2.90536 24.1374 2.90536C19.2828 2.90536 15.1903 6.14266 13.927 10.5629C13.7913 11.0298 13.6869 11.5175 13.6243 12.0052C17.5811 12.0363 21.0785 13.9559 23.2605 16.9131Z" fill="#8CBC4C"/>
<path d="M24.1374 23.8651C24.1269 23.4189 24.0956 22.9832 24.0329 22.5474C23.9599 22.0597 23.8659 21.572 23.7302 21.1051C23.6258 20.7419 23.5005 20.3788 23.3543 20.026C23.1142 19.4346 22.8219 18.8639 22.4774 18.3347C20.5982 15.3982 17.2886 13.4475 13.5198 13.4475C13.5198 17.1933 15.4825 20.4722 18.4371 22.3502C18.98 22.6926 19.5437 22.9832 20.1492 23.2322C20.4938 23.3774 20.8592 23.4916 21.2246 23.5954C21.6944 23.7303 22.1851 23.834 22.6757 23.8963C23.1038 23.9585 23.5423 23.9896 23.9912 24H24.1374V23.8651V23.8651Z" fill="#8CBC4C"/>
<path d="M141.327 27.8911H140.534V43.31H141.327V27.8911Z" fill="#5A5A5C"/>
<path d="M144.647 36.607C144.647 35.6628 145.451 35.2996 146.788 35.2996H147.174V35.2062C147.174 34.8223 147.08 34.5733 146.642 34.5733C146.266 34.5733 146.13 34.7912 146.099 35.0506H144.804C144.867 34.0856 145.629 33.6083 146.735 33.6083C147.842 33.6083 148.552 34.0649 148.552 35.1232V37.7173H147.205V37.2503C147.017 37.5409 146.662 37.8106 146.015 37.8106C145.295 37.8106 144.647 37.4579 144.647 36.607ZM147.184 36.3165V36.0674H146.819C146.266 36.0674 146.015 36.1712 146.015 36.5032C146.015 36.7315 146.172 36.8768 146.495 36.8768C146.892 36.8768 147.184 36.6589 147.184 36.3165Z" fill="#DD6735"/>
<path d="M150.797 35.4968V32.2387H152.373V35.4241C152.373 36.2024 152.561 36.5759 153.24 36.5759C153.897 36.5759 154.106 36.2231 154.106 35.4034V32.2387H155.703V35.476C155.703 37.0739 154.764 37.8106 153.24 37.8106C151.684 37.8106 150.797 37.0221 150.797 35.4968Z" fill="#DD6735"/>
<path d="M156.445 35.9741H157.948C157.99 36.3684 158.167 36.6901 158.815 36.6901C159.274 36.6901 159.525 36.4721 159.525 36.1505C159.525 35.8081 159.316 35.725 158.658 35.6213C157.103 35.4345 156.581 34.978 156.581 33.8781C156.581 32.8924 157.395 32.166 158.721 32.166C160.047 32.166 160.798 32.716 160.892 33.8781H159.431C159.378 33.4838 159.149 33.2867 158.721 33.2867C158.293 33.2867 158.084 33.4734 158.084 33.7536C158.084 34.0545 158.251 34.1998 158.94 34.2932C160.339 34.4488 161.049 34.8119 161.049 35.9948C161.049 37.0013 160.245 37.821 158.825 37.821C157.28 37.8106 156.497 37.1674 156.445 35.9741Z" fill="#DD6735"/>
<path d="M161.884 32.2387H163.982C165.496 32.2387 166.196 32.9027 166.196 34.0649V34.096C166.196 35.2478 165.413 35.8703 164.056 35.8703H163.46V37.7173H161.884V32.2387ZM163.92 34.7912C164.431 34.7912 164.703 34.5526 164.703 34.096V34.0649C164.703 33.5979 164.421 33.4112 163.93 33.4112H163.471V34.7912H163.92V34.7912Z" fill="#DD6735"/>
<path d="M167.95 35.7666V35.7043C167.95 34.3658 168.91 33.6083 170.1 33.6083C171.092 33.6083 172 34.0338 172.074 35.2581H170.779C170.716 34.8846 170.528 34.6771 170.132 34.6771C169.641 34.6771 169.359 35.0195 169.359 35.6939V35.7562C169.359 36.4514 169.631 36.8146 170.153 36.8146C170.539 36.8146 170.81 36.5863 170.852 36.1505H172.094C172.053 37.1673 171.374 37.821 170.069 37.821C168.868 37.8106 167.95 37.1155 167.95 35.7666Z" fill="#DD6735"/>
<path d="M172.501 35.7666V35.7043C172.501 34.4177 173.462 33.6083 174.715 33.6083C175.957 33.6083 176.907 34.3969 176.907 35.6731V35.7354C176.907 37.0428 175.947 37.821 174.704 37.821C173.462 37.8106 172.501 37.0532 172.501 35.7666ZM175.508 35.7354V35.6731C175.508 34.9987 175.237 34.6251 174.715 34.6251C174.193 34.6251 173.911 34.9883 173.911 35.6628V35.725C173.911 36.4202 174.182 36.7938 174.715 36.7938C175.237 36.7834 175.508 36.4099 175.508 35.7354Z" fill="#DD6735"/>
<path d="M177.565 33.7121H178.943V34.3243C179.162 33.9403 179.58 33.6083 180.206 33.6083C180.739 33.6083 181.104 33.8366 181.303 34.2724C181.647 33.8055 182.127 33.6083 182.639 33.6083C183.401 33.6083 183.954 34.096 183.954 35.1025V37.7277H182.576V35.3411C182.576 34.9364 182.378 34.7393 182.054 34.7393C181.689 34.7393 181.438 34.9779 181.438 35.4137V37.738H180.071V35.3515C180.071 34.9468 179.872 34.7497 179.559 34.7497C179.194 34.7497 178.943 34.9883 178.943 35.4241V37.7484H177.565V33.7121V33.7121Z" fill="#DD6735"/>
<path d="M184.81 33.7121H186.189V34.3139C186.418 33.93 186.836 33.6083 187.441 33.6083C188.381 33.6083 189.143 34.3139 189.143 35.6835V35.7458C189.143 37.1258 188.381 37.8106 187.431 37.8106C186.825 37.8106 186.387 37.5305 186.178 37.1258V39.0558H184.8V33.7121H184.81ZM187.744 35.7354V35.6731C187.744 34.9676 187.441 34.6355 186.951 34.6355C186.45 34.6355 186.147 34.9987 186.147 35.6731V35.7354C186.147 36.4202 186.45 36.7626 186.951 36.7626C187.462 36.7626 187.744 36.3995 187.744 35.7354Z" fill="#DD6735"/>
<path d="M189.582 36.607C189.582 35.6628 190.385 35.2996 191.722 35.2996H192.108V35.2062C192.108 34.8223 192.014 34.5733 191.576 34.5733C191.2 34.5733 191.054 34.7912 191.033 35.0506H189.738C189.801 34.0856 190.563 33.6083 191.67 33.6083C192.776 33.6083 193.486 34.0649 193.486 35.1232V37.7173H192.139V37.2503C191.951 37.5409 191.596 37.8106 190.949 37.8106C190.218 37.8106 189.582 37.4579 189.582 36.607ZM192.108 36.3165V36.0674H191.743C191.189 36.0674 190.939 36.1712 190.939 36.5032C190.939 36.7315 191.095 36.8768 191.419 36.8768C191.816 36.8768 192.108 36.6589 192.108 36.3165Z" fill="#DD6735"/>
<path d="M194.332 33.7121H195.71V34.3554C195.929 33.9404 196.368 33.6083 197.036 33.6083C197.819 33.6083 198.351 34.096 198.351 35.1232V37.7277H196.973V35.393C196.973 34.9365 196.796 34.7186 196.399 34.7186C195.992 34.7186 195.71 34.9676 195.71 35.476V37.7173H194.332V33.7121Z" fill="#DD6735"/>
<path d="M200.283 37.3126L198.675 33.7121H200.168L201.003 35.8496L201.776 33.7121H203.091L200.93 39.0662H199.614L200.283 37.3126Z" fill="#DD6735"/>
</svg>
