<svg width="197" height="45" viewBox="0 0 197 45" fill="none" xmlns="http://www.w3.org/2000/svg">
<path d="M136.343 34.3191C136.343 33.4339 137.101 33.0934 138.36 33.0934H138.724V33.0058C138.724 32.6459 138.636 32.4125 138.222 32.4125C137.868 32.4125 137.73 32.6168 137.711 32.86H136.49C136.549 31.9553 137.268 31.5078 138.311 31.5078C139.354 31.5078 140.023 31.9358 140.023 32.9281V35.36H138.754V34.9222C138.577 35.1946 138.242 35.4475 137.632 35.4475C136.953 35.4475 136.343 35.1168 136.343 34.3191ZM138.734 34.0467V33.8133H138.39C137.868 33.8133 137.632 33.9105 137.632 34.2218C137.632 34.4358 137.78 34.572 138.085 34.572C138.449 34.572 138.734 34.3677 138.734 34.0467Z" fill="#DD6735"/>
<path d="M142.139 33.2782V30.2238H143.625V33.2101C143.625 33.9397 143.802 34.2899 144.441 34.2899C145.061 34.2899 145.258 33.9591 145.258 33.1907V30.2238H146.764V33.2588C146.764 34.7568 145.878 35.4475 144.441 35.4475C142.975 35.4475 142.139 34.7082 142.139 33.2782Z" fill="#DD6735"/>
<path d="M147.463 33.7257H148.88C148.919 34.0954 149.087 34.3969 149.697 34.3969C150.13 34.3969 150.366 34.1926 150.366 33.8911C150.366 33.5701 150.169 33.4922 149.549 33.395C148.083 33.2199 147.591 32.7918 147.591 31.7607C147.591 30.8366 148.358 30.1556 149.608 30.1556C150.858 30.1556 151.566 30.6712 151.655 31.7607H150.277C150.228 31.3911 150.012 31.2062 149.608 31.2062C149.205 31.2062 149.008 31.3813 149.008 31.644C149.008 31.9261 149.165 32.0623 149.815 32.1499C151.133 32.2958 151.803 32.6362 151.803 33.7451C151.803 34.6887 151.045 35.4572 149.707 35.4572C148.25 35.4475 147.512 34.8444 147.463 33.7257Z" fill="#DD6735"/>
<path d="M152.59 30.2238H154.568C155.995 30.2238 156.654 30.8463 156.654 31.9358V31.965C156.654 33.0448 155.916 33.6284 154.637 33.6284H154.076V35.36H152.59V30.2238ZM154.499 32.6168C154.981 32.6168 155.237 32.3931 155.237 31.965V31.9358C155.237 31.4981 154.971 31.323 154.509 31.323H154.076V32.6168H154.499Z" fill="#DD6735"/>
<path d="M158.307 33.5312V33.4728C158.307 32.2179 159.212 31.5078 160.334 31.5078C161.269 31.5078 162.125 31.9067 162.194 33.0545H160.974C160.915 32.7043 160.738 32.5098 160.364 32.5098C159.911 32.5098 159.636 32.8308 159.636 33.4631V33.5214C159.636 34.1732 159.891 34.5137 160.384 34.5137C160.748 34.5137 161.003 34.2997 161.043 33.8911H162.214C162.175 34.8444 161.535 35.4572 160.305 35.4572C159.173 35.4475 158.307 34.7958 158.307 33.5312Z" fill="#DD6735"/>
<path d="M162.598 33.5312V33.4728C162.598 32.2666 163.503 31.5078 164.684 31.5078C165.855 31.5078 166.76 32.2471 166.76 33.4436V33.502C166.76 34.7276 165.855 35.4572 164.684 35.4572C163.503 35.4475 162.598 34.7374 162.598 33.5312ZM165.432 33.502V33.4436C165.432 32.8113 165.176 32.4611 164.684 32.4611C164.202 32.4611 163.926 32.8016 163.926 33.4339V33.4922C163.926 34.144 164.182 34.4942 164.684 34.4942C165.166 34.4845 165.432 34.1343 165.432 33.502Z" fill="#DD6735"/>
<path d="M167.37 31.6051H168.669V32.179C168.876 31.8191 169.269 31.5078 169.86 31.5078C170.362 31.5078 170.706 31.7218 170.893 32.1304C171.218 31.6927 171.671 31.5078 172.153 31.5078C172.871 31.5078 173.393 31.965 173.393 32.9086V35.3697H172.094V33.1323C172.094 32.7529 171.907 32.5682 171.602 32.5682C171.257 32.5682 171.021 32.7919 171.021 33.2004V35.3794H169.732V33.142C169.732 32.7627 169.545 32.5779 169.24 32.5779C168.895 32.5779 168.659 32.8016 168.659 33.2101V35.3891H167.36V31.6051H167.37Z" fill="#DD6735"/>
<path d="M174.2 31.6051H175.499V32.1693C175.715 31.8094 176.109 31.5078 176.68 31.5078C177.565 31.5078 178.284 32.1693 178.284 33.4533V33.5117C178.284 34.8055 177.565 35.4475 176.67 35.4475C176.099 35.4475 175.686 35.1849 175.489 34.8055V36.6148H174.19V31.6051H174.2ZM176.965 33.502V33.4436C176.965 32.7821 176.67 32.4708 176.217 32.4708C175.745 32.4708 175.459 32.8113 175.459 33.4436V33.502C175.459 34.144 175.745 34.465 176.217 34.465C176.699 34.465 176.965 34.1245 176.965 33.502Z" fill="#DD6735"/>
<path d="M178.697 34.3191C178.697 33.4339 179.455 33.0934 180.714 33.0934H181.078V33.0058C181.078 32.6459 180.99 32.4125 180.576 32.4125C180.222 32.4125 180.094 32.6168 180.065 32.86H178.844C178.903 31.9553 179.622 31.5078 180.665 31.5078C181.708 31.5078 182.377 31.9358 182.377 32.9281V35.36H181.108V34.9222C180.931 35.1946 180.596 35.4475 179.986 35.4475C179.297 35.4475 178.697 35.1168 178.697 34.3191ZM181.078 34.0467V33.8133H180.734C180.212 33.8133 179.976 33.9105 179.976 34.2218C179.976 34.4358 180.124 34.572 180.429 34.572C180.803 34.572 181.078 34.3677 181.078 34.0467Z" fill="#DD6735"/>
<path d="M183.174 31.6051H184.473V32.2082C184.68 31.8191 185.093 31.5078 185.723 31.5078C186.461 31.5078 186.963 31.965 186.963 32.9281V35.3697H185.664V33.181C185.664 32.753 185.497 32.5487 185.123 32.5487C184.739 32.5487 184.473 32.7821 184.473 33.2588V35.36H183.174V31.6051Z" fill="#DD6735"/>
<path d="M188.774 34.9806L187.258 31.6051H188.666L189.453 33.609L190.181 31.6051H191.421L189.384 36.6245H188.144L188.774 34.9806Z" fill="#DD6735"/>
<path d="M98.6231 28.2977C98.1901 28.2977 97.8457 27.9572 97.8457 27.5584C97.8457 27.1401 98.1803 26.7997 98.6231 26.7997C99.0167 26.7997 99.3612 27.1401 99.3612 27.5584C99.3513 27.9572 99.0167 28.2977 98.6231 28.2977Z" fill="white"/>
<path d="M62.2813 29.4553C61.317 29.4553 60.451 29.6888 59.8015 30.039L60.1951 30.895C60.8052 30.5448 61.435 30.3405 62.2125 30.3405C63.2949 30.3405 63.8165 30.8756 63.8165 31.9553V32.8211C63.3835 32.5876 62.7143 32.4028 61.9664 32.4028C60.5002 32.4028 59.1323 33.1032 59.1323 34.7472C59.1323 36.5176 60.3427 37.0915 61.5039 37.0915C62.5667 37.0915 63.2949 36.6051 63.8165 36.0409V36.9359H64.8793V31.8289C64.8793 30.1265 63.8755 29.4553 62.2813 29.4553ZM63.8165 35.1362C63.3638 35.7491 62.6454 36.2355 61.6909 36.2355C60.7856 36.2355 60.1754 35.7588 60.1754 34.6693C60.1754 33.7452 60.8249 33.2296 61.9074 33.2296C62.8127 33.2296 63.3343 33.3853 63.8165 33.6479V35.1362Z" fill="white"/>
<path d="M70.2523 32.6752C69.0025 32.1207 68.6187 31.8677 68.6187 31.2549C68.6187 30.7296 69.0714 30.3502 69.8488 30.3502C70.6361 30.3502 71.1182 30.5642 71.6988 31.002L72.2893 30.2335C71.7284 29.7763 70.9313 29.4553 69.9177 29.4553C68.5794 29.4553 67.6051 30.2043 67.6051 31.323C67.6051 32.5001 68.2251 32.9378 69.711 33.5701C71.0198 34.1246 71.4627 34.4651 71.4627 35.0584C71.4627 35.7686 70.9805 36.1868 69.9669 36.1868C69.2288 36.1868 68.54 35.895 67.9496 35.3794L67.3296 36.1479C68.0381 36.7121 68.9238 37.0817 69.9374 37.0817C71.2166 37.0817 72.4762 36.4495 72.4762 35.0195C72.4762 33.7063 71.6496 33.3075 70.2523 32.6752Z" fill="white"/>
<path d="M77.4163 32.6752C76.1567 32.1207 75.7828 31.8677 75.7828 31.2549C75.7828 30.7296 76.2355 30.3502 77.0129 30.3502C77.8001 30.3502 78.2823 30.5642 78.8629 31.002L79.4533 30.2335C78.8924 29.7763 78.0953 29.4553 77.0817 29.4553C75.7434 29.4553 74.7692 30.2043 74.7692 31.323C74.7692 32.5001 75.3892 32.9378 76.8751 33.5701C78.1839 34.1246 78.6267 34.4651 78.6267 35.0584C78.6267 35.7686 78.1445 36.1868 77.1309 36.1868C76.3929 36.1868 75.7041 35.895 75.1136 35.3794L74.4937 36.1479C75.2022 36.7121 76.0878 37.0817 77.1014 37.0817C78.3807 37.0817 79.6403 36.4495 79.6403 35.0195C79.6305 33.7063 78.8137 33.3075 77.4163 32.6752Z" fill="white"/>
<path d="M85.0526 29.4553C83.2419 29.4553 81.8052 30.7977 81.8052 33.2783C81.8052 35.7588 83.1927 37.0817 84.9936 37.0817C86.8042 37.0817 88.241 35.7005 88.241 33.2199C88.241 30.7394 86.8534 29.4553 85.0526 29.4553ZM85.0231 36.1771C83.7438 36.1771 82.8778 35.1751 82.8778 33.2491C82.8778 31.323 83.7339 30.36 85.0231 30.36C86.3122 30.36 87.188 31.323 87.188 33.2491C87.1782 35.1751 86.3024 36.1771 85.0231 36.1771Z" fill="white"/>
<path d="M93.3387 30.36C94.0865 30.36 94.5786 30.6226 95.1198 31.0993L95.7595 30.3211C95.1789 29.8153 94.4211 29.4553 93.4174 29.4553C91.8626 29.4553 90.229 30.6032 90.229 33.3075C90.229 35.8561 91.7248 37.0915 93.3485 37.0915C94.3916 37.0915 95.11 36.7024 95.7398 36.0701L95.1001 35.3989C94.5983 35.8853 94.1161 36.1771 93.3879 36.1771C92.0791 36.1771 91.3016 35.0195 91.3016 33.2199C91.2918 31.3911 92.1775 30.36 93.3387 30.36Z" fill="white"/>
<path d="M99.1447 29.6108H98.0918V36.9358H99.1447V29.6108Z" fill="white"/>
<path d="M104.695 29.4553C103.731 29.4553 102.865 29.6888 102.215 30.039L102.609 30.895C103.219 30.5448 103.849 30.3405 104.626 30.3405C105.708 30.3405 106.23 30.8756 106.23 31.9553V32.8211C105.787 32.5876 105.128 32.4028 104.38 32.4028C102.914 32.4028 101.546 33.1032 101.546 34.7472C101.546 36.5176 102.756 37.0915 103.917 37.0915C104.98 37.0915 105.709 36.6051 106.23 36.0409V36.9359H107.283V31.8289C107.293 30.1265 106.289 29.4553 104.695 29.4553ZM106.24 35.1362C105.787 35.7491 105.069 36.2355 104.104 36.2355C103.199 36.2355 102.599 35.7588 102.599 34.6693C102.599 33.7452 103.248 33.2296 104.331 33.2296C105.236 33.2296 105.758 33.3853 106.24 33.6479V35.1362Z" fill="white"/>
<path d="M111.662 26.7607L110.609 27.3444V29.6012H109.694V30.4767H110.609V35.4184C110.609 36.6343 111.101 37.0817 112.016 37.0817C112.577 37.0817 112.981 36.9942 113.384 36.8289L113.453 35.9241C113.118 36.0603 112.833 36.1382 112.41 36.1382C111.839 36.1382 111.662 35.9144 111.662 35.2627V30.4864H113.492V29.6109H111.662V26.7607Z" fill="white"/>
<path d="M118.649 29.4553C116.887 29.4553 115.588 30.9048 115.588 33.2394C115.588 36.1188 117.242 37.0915 118.59 37.0915C119.702 37.0915 120.351 36.7997 121.247 36.2355L120.755 35.4865C120.076 35.9339 119.574 36.1868 118.708 36.1868C117.497 36.1868 116.75 35.1946 116.651 33.6382H121.591C121.621 33.4728 121.631 33.3172 121.631 33.0643C121.621 30.9631 120.578 29.4553 118.649 29.4553ZM116.641 32.7724C116.769 31.1382 117.527 30.36 118.629 30.36C119.928 30.36 120.548 31.3522 120.637 32.7724H116.641Z" fill="white"/>
<path d="M126.531 32.6752C125.271 32.1207 124.898 31.8677 124.898 31.2549C124.898 30.7296 125.35 30.3502 126.128 30.3502C126.915 30.3502 127.397 30.5642 127.978 31.002L128.568 30.2335C128.007 29.7763 127.21 29.4553 126.196 29.4553C124.858 29.4553 123.884 30.2043 123.884 31.323C123.884 32.5001 124.504 32.9378 125.99 33.5701C127.308 34.1246 127.741 34.4651 127.741 35.0584C127.741 35.7686 127.259 36.1868 126.246 36.1868C125.508 36.1868 124.819 35.895 124.228 35.3794L123.608 36.1479C124.317 36.7121 125.203 37.0817 126.216 37.0817C127.495 37.0817 128.755 36.4495 128.755 35.0195C128.745 33.7063 127.928 33.3075 126.531 32.6752Z" fill="white"/>
<path d="M64.6037 10.0389C63.3736 10.0389 62.3895 10.6129 61.5432 11.3911V10.2821H59.27V26.1479L61.5432 24.9709V20.7977C62.1927 21.5078 63.3047 22.1207 64.4954 22.1207C66.9359 22.1207 69.1205 20.2432 69.1205 16.2646C69.1107 11.8483 67.1229 10.0389 64.6037 10.0389ZM64.2691 20.0195C63.1079 20.0195 62.0352 19.1829 61.5235 18.4922V13.609C62.1238 12.86 63.0882 12.1304 64.1805 12.1304C65.8829 12.1304 66.8178 13.4144 66.8178 16.323C66.808 18.7841 65.9223 20.0195 64.2691 20.0195Z" fill="white"/>
<path d="M78.3711 10.0389C77.1607 10.0389 75.9995 10.5448 75.4189 11.3911V5.7782L73.1162 6.97474V21.8871H75.4189V15.107C75.4189 13.2296 76.2947 12.1498 77.8299 12.1498C79.3453 12.1498 80.2408 12.9864 80.2408 15.3307V21.8969H82.5436V15.2432C82.5534 11.7996 81.097 10.0389 78.3711 10.0389Z" fill="white"/>
<path d="M91.5573 10.0389C89.9041 10.0389 88.6543 10.3891 87.5325 11.0798L88.428 12.8016C89.3431 12.2958 90.278 12.072 91.4884 12.072C92.9153 12.072 93.7026 12.7821 93.7026 14.037V14.9028C93.0531 14.6207 92.1871 14.465 91.085 14.465C88.428 14.465 86.4106 15.6324 86.4106 18.2199C86.4106 21.0701 88.5756 22.1304 90.4748 22.1304C91.7443 22.1304 92.8858 21.537 93.6927 20.7393V21.8872H95.9462V13.93C95.9561 11.2938 94.1749 10.0389 91.5573 10.0389ZM93.7026 18.5896C93.1712 19.3191 92.0985 20.0681 90.8685 20.0681C89.353 20.0681 88.6149 19.2997 88.6149 18.1518C88.6149 17.0915 89.5596 16.43 91.0259 16.43C92.2757 16.43 93.0826 16.6343 93.7124 16.9359V18.5896H93.7026Z" fill="white"/>
<path d="M102.687 11.3813V10.2724H100.384V21.8677H102.687V15.2432C102.687 13.2782 103.533 12.2568 104.99 12.2568C105.747 12.2568 106.259 12.4125 106.751 12.6751L107.351 10.5156C106.879 10.2043 106.299 10.0292 105.364 10.0292C104.202 10.0389 103.218 10.6128 102.687 11.3813Z" fill="white"/>
<path d="M122.752 10.0389C120.922 10.0389 120.007 10.7004 119.151 11.7413C118.521 10.6323 117.517 10.0389 115.933 10.0389C114.723 10.0389 113.719 10.5448 113.138 11.3911V10.2821H110.835V21.8775H113.138V15.0973C113.138 13.2199 113.857 12.1401 115.392 12.1401C116.917 12.1401 117.645 12.9767 117.645 15.321V21.8872H119.948V15.1071C119.948 13.2296 120.666 12.1499 122.201 12.1499C123.717 12.1499 124.455 12.9864 124.455 15.3308V21.8969H126.758V15.2433C126.777 11.7997 125.478 10.0389 122.752 10.0389Z" fill="white"/>
<path d="M135.781 10.0389C134.128 10.0389 132.878 10.3891 131.757 11.0798L132.652 12.8016C133.567 12.2958 134.502 12.072 135.713 12.072C137.139 12.072 137.927 12.7821 137.927 14.037V14.9028C137.277 14.6207 136.411 14.465 135.309 14.465C132.652 14.465 130.635 15.6324 130.635 18.2199C130.635 21.0701 132.8 22.1304 134.699 22.1304C135.968 22.1304 137.11 21.537 137.917 20.7393V21.8872H140.17V13.93C140.19 11.2938 138.399 10.0389 135.781 10.0389ZM137.927 18.5896C137.395 19.3191 136.323 20.0681 135.093 20.0681C133.577 20.0681 132.839 19.2997 132.839 18.1518C132.839 17.0915 133.774 16.43 135.25 16.43C136.5 16.43 137.307 16.6343 137.937 16.9359V18.5896H137.927Z" fill="white"/>
<path d="M147.58 5.76843L145.327 6.96497V10.2821H143.654V12.3638H145.327V19.0564C145.327 21.1284 146.33 22.1303 147.964 22.1303C148.879 22.1303 149.666 21.9066 150.218 21.5953L150.483 19.5817C150.06 19.8249 149.391 20.0486 148.781 20.0486C147.934 20.0486 147.57 19.7373 147.57 18.6575V12.3638H150.473V10.2821H147.57V5.76843H147.58Z" fill="white"/>
<path d="M158.424 10.0389C155.384 10.0389 153.288 12.1596 153.288 16.0896C153.288 19.932 155.61 22.1207 158.365 22.1207C160.156 22.1207 161.386 21.5662 162.41 20.5934L161.042 19.1343C160.265 19.7082 159.477 20.0584 158.493 20.0584C157.066 20.0584 155.787 19.1051 155.541 16.8775H163.296C163.315 16.6343 163.364 16.2549 163.364 15.8366C163.364 12.7141 161.751 10.0389 158.424 10.0389ZM155.59 15.0097C155.797 13.1518 156.732 12.0915 158.277 12.0915C160.176 12.0915 160.934 13.4144 161.052 15.0097H155.59Z" fill="white"/>
<path d="M171.404 12.1985C172.457 12.1985 173.304 12.6362 174.268 13.609L175.626 11.9942C174.534 10.7101 173.186 10.0292 171.463 10.0292C168.6 10.0292 166.327 12.2568 166.327 16.1089C166.327 19.7276 168.541 22.1207 171.395 22.1207C173.52 22.1207 174.681 21.1089 175.597 19.9514L174.12 18.5117C173.205 19.465 172.556 19.9514 171.463 19.9514C169.633 19.9514 168.649 18.3172 168.649 16.0409C168.659 13.6868 169.732 12.1985 171.404 12.1985Z" fill="white"/>
<path d="M184.482 10.0389C183.272 10.0389 182.111 10.5448 181.53 11.3911V5.7782L179.228 6.97474V21.8871H181.53V15.107C181.53 13.2296 182.396 12.1498 183.941 12.1498C185.457 12.1498 186.352 12.9864 186.352 15.3307V21.8969H188.655V15.2432C188.665 11.7996 187.208 10.0389 184.482 10.0389Z" fill="white"/>
<path d="M191.912 7.12063V8.91054C191.912 9.15373 191.981 9.24124 192.198 9.24124C192.355 9.24124 192.463 9.2121 192.591 9.16347L192.562 9.50391C192.404 9.56227 192.257 9.60116 192.05 9.60116C191.706 9.60116 191.519 9.43584 191.519 8.97864V7.12063H191.174V6.78992H191.519V5.94362L191.912 5.71985V6.78992H192.601V7.12063H191.912Z" fill="white"/>
<path d="M196.596 9.54277V7.93775C196.596 7.30545 196.4 7.08171 195.996 7.08171C195.622 7.08171 195.376 7.33464 195.376 7.93775V9.54277H194.983V7.93775C194.983 7.30545 194.766 7.08171 194.382 7.08171C193.998 7.08171 193.762 7.33464 193.762 7.93775V9.54277H193.369V6.79963H193.762V7.13034C193.9 6.89688 194.136 6.74121 194.471 6.74121C194.864 6.74121 195.101 6.95526 195.229 7.20818C195.396 6.94553 195.622 6.74121 196.075 6.74121C196.636 6.74121 197 7.07198 197 7.86965V9.54277H196.596Z" fill="white"/>
<path d="M35.4656 11.5759C35.0031 11.4592 34.5406 11.3814 34.0584 11.323C33.9993 10.8463 33.9206 10.3891 33.8025 9.93194C32.5823 5.01949 28.095 1.35217 22.7515 1.35217C17.408 1.35217 12.9207 5.00977 11.7004 9.93194C11.5922 10.3891 11.5036 10.8463 11.4446 11.323C10.9624 11.3814 10.4999 11.4592 10.0374 11.5759C5.06784 12.7821 1.35791 17.2179 1.35791 22.5C1.35791 27.7821 5.05799 32.218 10.0374 33.4242C10.4999 33.5312 10.9624 33.6187 11.4446 33.6674C11.5036 34.144 11.5823 34.6012 11.7004 35.0584C12.9207 39.9709 17.408 43.6382 22.7515 43.6382C28.095 43.6382 32.5823 39.9806 33.8025 35.0584C33.9108 34.6012 33.9993 34.144 34.0584 33.6674C34.5406 33.6187 35.0031 33.5312 35.4656 33.4242C40.4351 32.218 44.1451 27.7821 44.1451 22.5C44.1451 17.2179 40.4351 12.7821 35.4656 11.5759Z" fill="white"/>
<path d="M35.2689 10.1362C34.0979 4.36775 28.9414 0 22.7614 0C16.5815 0 11.4152 4.36775 10.254 10.1362C4.41845 11.2841 0 16.3911 0 22.5C0 28.6089 4.41845 33.716 10.254 34.8638C11.425 40.6323 16.5913 45 22.7614 45C28.9414 45 34.1077 40.642 35.2689 34.8638C41.1044 33.7062 45.5229 28.6089 45.5229 22.5C45.5229 16.3911 41.1044 11.2938 35.2689 10.1362ZM35.4657 33.4338C35.0032 33.5408 34.5407 33.6284 34.0585 33.6868C33.9995 34.1634 33.9207 34.6206 33.8026 35.0778C32.5824 39.9903 28.0951 43.6576 22.7516 43.6576C17.4081 43.6576 12.9208 40 11.7005 35.0778C11.5923 34.6206 11.5037 34.1634 11.4447 33.6868C10.9625 33.6381 10.5 33.5506 10.0375 33.4338C5.06794 32.2276 1.35801 27.7918 1.35801 22.5097C1.35801 17.2276 5.0581 12.7821 10.0375 11.5856C10.5 11.4689 10.9625 11.3911 11.4447 11.3327C11.5037 10.8658 11.5824 10.3989 11.7005 9.94166C12.9208 5.02921 17.4081 1.36189 22.7516 1.36189C28.0951 1.36189 32.5824 5.01949 33.8026 9.94166C33.9109 10.3989 33.9995 10.8561 34.0585 11.3327C34.5407 11.3911 35.0032 11.4689 35.4657 11.5856C40.4352 12.7919 44.1452 17.2276 44.1452 22.5097C44.1452 27.7821 40.4352 32.2276 35.4657 33.4338Z" fill="#215B6C"/>
<path d="M22.7515 22.6459C22.7613 23.0545 22.7908 23.4631 22.8499 23.8619C22.9188 24.3288 23.0073 24.7763 23.1352 25.214C23.2337 25.5545 23.3517 25.895 23.4895 26.2257C23.7158 26.7802 24.0012 27.3152 24.3161 27.8113C26.0874 30.5642 29.2069 32.393 32.7594 32.393C32.7594 28.8814 30.9094 25.8074 28.1245 24.0467C27.6226 23.7257 27.0813 23.4533 26.5204 23.2296C26.1858 23.0934 25.8513 22.9767 25.497 22.8794C25.0542 22.7529 24.5917 22.6557 24.1292 22.5973C23.7257 22.5389 23.3124 22.5097 22.8991 22.5H22.7515V22.6459Z" fill="#33817D"/>
<path d="M23.5882 29.1537C23.2831 28.7451 23.0076 28.3171 22.7616 27.8696C22.5156 28.3171 22.24 28.7451 21.935 29.1537C19.8783 31.9163 16.5817 33.7256 12.8521 33.7548C12.9209 34.212 13.0095 34.6692 13.1374 35.107C14.3281 39.251 18.1857 42.286 22.7616 42.286C27.3375 42.286 31.1852 39.251 32.3857 35.107C32.5137 34.6692 32.6121 34.212 32.6711 33.7548C28.9415 33.7159 25.6449 31.9163 23.5882 29.1537Z" fill="#33817D"/>
<path d="M16.0305 23.3171C16.4438 23.0156 16.8768 22.7432 17.3295 22.5C16.8768 22.2568 16.4438 21.9844 16.0305 21.6829C13.2357 19.6498 11.4054 16.391 11.3759 12.714C10.9035 12.7821 10.4508 12.8697 10.008 12.9961C5.81589 14.1732 2.74561 17.9864 2.74561 22.5097C2.74561 27.0331 5.81589 30.8366 10.008 32.0234C10.4508 32.1498 10.9133 32.2471 11.3759 32.3054C11.4054 28.6187 13.2357 25.3502 16.0305 23.3171Z" fill="#DD6735"/>
<path d="M21.3837 22.5973C20.9212 22.6557 20.4586 22.7529 20.0158 22.8794C19.6714 22.9767 19.327 23.0934 18.9924 23.2296C18.4315 23.4533 17.8902 23.7354 17.3884 24.0467C14.6035 25.7977 12.7534 28.8814 12.7534 32.393C16.3059 32.393 19.4155 30.5642 21.1967 27.8113C21.5214 27.3152 21.797 26.7802 22.0233 26.2257C22.1611 25.895 22.2792 25.5642 22.3776 25.214C22.5055 24.7763 22.6039 24.3191 22.663 23.8619C22.722 23.4631 22.7515 23.0545 22.7614 22.6459V22.5H22.6236C22.2004 22.5097 21.7871 22.5389 21.3837 22.5973Z" fill="#DD6735"/>
<path d="M35.505 12.9864C35.0622 12.8599 34.5997 12.7626 34.1372 12.7042C34.1077 16.3813 32.2773 19.6498 29.4826 21.6829C29.0693 21.9844 28.6363 22.2568 28.1836 22.4999C28.6363 22.7431 29.0693 23.0253 29.4826 23.3171C32.2773 25.3502 34.1077 28.6089 34.1372 32.2957C34.6095 32.2276 35.0622 32.1401 35.505 32.0136C39.6972 30.8366 42.7674 27.0233 42.7674 22.4999C42.7674 17.9766 39.6972 14.1731 35.505 12.9864Z" fill="#4BB4A2"/>
<path d="M22.8991 22.5C23.3124 22.5 23.7257 22.4611 24.1292 22.4028C24.6015 22.3347 25.0542 22.2472 25.497 22.1207C25.8414 22.0234 26.176 21.9067 26.5106 21.7802C27.0715 21.5565 27.6127 21.2744 28.1245 20.9534C30.9094 19.2024 32.7594 16.1187 32.7594 12.6071C29.2069 12.6071 26.0973 14.4359 24.3161 17.1888C23.9914 17.6849 23.7158 18.2199 23.4895 18.7744C23.3517 19.1051 23.2337 19.4359 23.1352 19.786C23.0073 20.2238 22.9089 20.681 22.8499 21.1382C22.7908 21.537 22.7613 21.9553 22.7515 22.3639V22.4903H22.8991V22.5Z" fill="#4BB4A2"/>
<path d="M21.9248 15.856C22.2299 16.2646 22.5054 16.6926 22.7514 17.14C22.9974 16.6926 23.273 16.2646 23.578 15.856C25.6347 13.0934 28.9313 11.284 32.6511 11.2548C32.5822 10.7879 32.4937 10.3404 32.3657 9.90269C31.175 5.75872 27.3175 2.72375 22.7416 2.72375C18.1657 2.72375 14.3081 5.75872 13.1174 9.90269C12.9895 10.3404 12.8911 10.7976 12.832 11.2548C16.5715 11.284 19.8681 13.0837 21.9248 15.856Z" fill="#8CBC4C"/>
<path d="M22.7516 22.3736C22.7418 21.9553 22.7122 21.5468 22.6532 21.1382C22.5843 20.681 22.4957 20.2238 22.3678 19.786C22.2694 19.4456 22.1513 19.1051 22.0135 18.7744C21.7872 18.2199 21.5117 17.6849 21.1869 17.1888C19.4156 14.4359 16.2961 12.6071 12.7437 12.6071C12.7437 16.1187 14.5937 19.1927 17.3786 20.9534C17.8903 21.2744 18.4217 21.5467 18.9925 21.7802C19.3172 21.9164 19.6616 22.0234 20.0061 22.1207C20.4489 22.2472 20.9114 22.3444 21.3739 22.4028C21.7774 22.4611 22.1907 22.4903 22.6138 22.5H22.7516V22.3736Z" fill="#8CBC4C"/>
<path d="M133.213 26.1478H132.465V40.6031H133.213V26.1478Z" fill="white"/>
</svg>
